<?xml version="1.0" encoding="UTF-8"?>
<svg width="24px" height="24px" viewBox="0 0 24 24" version="1.1" xmlns="http://www.w3.org/2000/svg" xmlns:xlink="http://www.w3.org/1999/xlink">
    <title>Music Note</title>
    <g id="Page-1" stroke="none" stroke-width="1" fill="none" fill-rule="evenodd">
        <g id="music-note" fill="#000000" fill-rule="nonzero">
            <path d="M19.8,0 C19.9,0 20,0.1 20,0.2 L20,16.4 C20,18.4 18.4,20 16.4,20 C14.4,20 12.8,18.4 12.8,16.4 C12.8,14.4 14.4,12.8 16.4,12.8 C16.9,12.8 17.4,12.9 17.8,13.1 L17.8,3.6 L6.2,6.2 L6.2,19.8 C6.2,21.8 4.6,23.4 2.6,23.4 C0.6,23.4 -1,21.8 -1,19.8 C-1,17.8 0.6,16.2 2.6,16.2 C3.1,16.2 3.6,16.3 4,16.5 L4,2.2 C4,2 4.2,1.9 4.4,1.8 L19.6,0 C19.7,0 19.8,0 19.8,0 Z" id="Path"></path>
        </g>
    </g>
</svg>
